# xmcd
#
# Track frame offsets:
#	150
#	13706
#	39171
#	89949
#	137429
#
# Disc length: 2734 seconds
#
# Revision: 1
# Processed by: cddbd v1.5.1PL0 Copyright (c) Steve Scherf et al.
# Submitted via: audiograbber 1.82.01
#
DISCID=380aac05
DTITLE=Led Zeppelin - 1969-01-10 - San Francisco Fillmore West - "For Your Love
DTITLE=" - Disc 1
DYEAR=1900
DGENRE=
TTITLE0=Led Zeppelin - TrainKeptARollin
TTITLE1=Led Zeppelin - ICan'tQuitYou
TTITLE2=Led Zeppelin - AsLongAsIHaveYou
TTITLE3=Led Zeppelin - DazedandConf
TTITLE4=Led Zeppelin - HowManyMoreTimes
EXTD=
EXTT0=
EXTT1=
EXTT2=
EXTT3=
EXTT4=
PLAYORDER=
